# xmcd
#
# Track frame offsets: 
#        150
#        9640
#        23093
#        33765
#        48726
#        59794
#        71241
#        83627
#        95076
#        107531
#
# Disc length: 1547 seconds
#
# Revision: 0
# Processed by: cddbd v1.5.2PL0 Copyright (c) Steve Scherf et al.
# Submitted via: ExactAudioCopy v0.95b4
#
DISCID=8306090a
DTITLE=Roosevelt Sykes - Sings The Blues
DYEAR=2006
DGENRE=Blues
TTITLE0=Slave For Your Love
TTITLE1=Gone With The Wind
TTITLE2=Wild Side
TTITLE3=Out On A Limb
TTITLE4=Honey Child
TTITLE5=Never Loved Like This Before
TTITLE6=Last Chance
TTITLE7=Casual Friend
TTITLE8=Your Will Is Mine
TTITLE9=Hupe Dupe Do
EXTD=
EXTT0=
EXTT1=
EXTT2=
EXTT3=
EXTT4=
EXTT5=
EXTT6=
EXTT7=
EXTT8=
EXTT9=
PLAYORDER=
